<svg xmlns="http://www.w3.org/2000/svg" viewBox="0 0 1024 1024" fill="none">
  <defs>
    <filter id="shadow" x="120" y="132" width="784" height="784" color-interpolation-filters="sRGB">
      <feDropShadow dx="0" dy="20" stdDeviation="28" flood-color="#132f67" flood-opacity=".12" />
    </filter>
  </defs>

  <rect width="1024" height="1024" rx="220" fill="#f8fafc" />
  <rect x="102" y="102" width="820" height="820" rx="180" fill="#ffffff" stroke="#e4e9f1" stroke-width="8" filter="url(#shadow)" />
  <g transform="translate(248 212) scale(0.498)">
    <path d="M296 530C271 570 268 623 305 655C365 706 487 710 610 688C733 666 844 619 904 556C945 512 953 464 927 427C888 373 793 362 682 380C559 401 430 465 296 530Z" stroke="#132f67" stroke-width="15" stroke-linecap="round" stroke-linejoin="round" fill="none" />
    <line x1="416" y1="602" x2="556" y2="206" stroke="#132f67" stroke-width="22" stroke-linecap="round" />
    <path d="M549 198L579 198L756 621L724 633L549 198Z" fill="#132f67" />
    <path d="M528 343C535 362 539 366 557 371C539 376 535 380 528 399C522 380 518 376 500 371C518 366 522 362 528 343Z" fill="#f5b238" />
    <circle cx="529" cy="438" r="8" fill="#132f67" />
  </g>
</svg>
